<svg width="14" height="17" viewBox="0 0 14 17" fill="none" xmlns="http://www.w3.org/2000/svg">
<path d="M13.0729 5.6825C12.552 6.00141 12.1206 6.44725 11.8189 6.97831C11.5173 7.50938 11.3553 8.10829 11.3481 8.719C11.3502 9.40635 11.5538 10.078 11.9338 10.6508C12.3138 11.2235 12.8535 11.6722 13.486 11.9413C13.2366 12.7459 12.8676 13.5084 12.3912 14.2031C11.7096 15.1843 10.9969 16.1654 9.91251 16.1654C8.82811 16.1654 8.54921 15.5354 7.29951 15.5354C6.08081 15.5354 5.64701 16.1861 4.65551 16.1861C3.66401 16.1861 2.97211 15.2772 2.17681 14.1618C1.12628 12.5992 0.548917 10.7667 0.514008 8.8842C0.514008 5.7858 2.52801 4.1437 4.51091 4.1437C5.56441 4.1437 6.44231 4.8356 7.10331 4.8356C7.73331 4.8356 8.71451 4.1023 9.91251 4.1023C10.5285 4.08641 11.1389 4.22222 11.69 4.49778C12.2411 4.77334 12.716 5.18019 13.0729 5.6825ZM9.34451 2.7907C9.87261 2.16946 10.1716 1.38583 10.1914 0.570702C10.1923 0.463244 10.1819 0.35599 10.1604 0.250702C9.25327 0.339316 8.41441 0.771676 7.81591 1.4591C7.28271 2.05559 6.97251 2.81829 6.93801 3.6176C6.93841 3.71481 6.9488 3.81172 6.96901 3.9068C7.04052 3.92032 7.11313 3.92725 7.18591 3.9275C7.60398 3.89423 8.01092 3.77631 8.382 3.58088C8.75309 3.38546 9.08055 3.11662 9.34451 2.7907Z" fill="black" fill-opacity="0.8"/>
</svg>
