<svg width="15" height="15" viewBox="0 0 15 15" fill="none" xmlns="http://www.w3.org/2000/svg">
<path d="M14.298 13.202L10.428 9.332C11.129 8.403 11.55 7.251 11.55 6C11.55 2.94 9.06101 0.449997 6.00001 0.449997C2.94001 0.449997 0.450012 2.94 0.450012 6C0.450012 9.061 2.94001 11.55 6.00001 11.55C7.25101 11.55 8.40301 11.129 9.33201 10.428L13.202 14.298C13.353 14.449 13.552 14.526 13.75 14.526C13.948 14.526 14.146 14.45 14.298 14.298C14.601 13.995 14.601 13.505 14.298 13.202ZM1.55001 6C1.55001 3.546 3.54701 1.55 6.00001 1.55C8.45401 1.55 10.45 3.547 10.45 6C10.45 8.453 8.45401 10.45 6.00001 10.45C3.54601 10.45 1.55001 8.454 1.55001 6Z" fill="black" fill-opacity="0.8"/>
</svg>
