<svg width="14" height="15" viewBox="0 0 14 15" fill="none" xmlns="http://www.w3.org/2000/svg">
<path d="M11.3535 3.02831H10.333C10.2236 2.21729 9.82725 1.47231 9.21579 0.928401C8.60433 0.384492 7.81824 0.0776551 7 0.0635071C6.18176 0.0776551 5.39567 0.384492 4.78421 0.928401C4.17275 1.47231 3.7764 2.21729 3.667 3.02831H2.647C2.08579 3.02868 1.54766 3.25173 1.15075 3.64849C0.753835 4.04525 0.530581 4.5833 0.529999 5.14451V12.86C0.530502 13.4212 0.753603 13.9592 1.15034 14.356C1.54709 14.7528 2.08506 14.9761 2.6462 14.9767H11.3532C11.9144 14.9762 12.4526 14.7531 12.8494 14.3562C13.2463 13.9594 13.4695 13.4213 13.47 12.86V5.14451C13.4694 4.58338 13.2462 4.04541 12.8494 3.64867C12.4526 3.25192 11.9146 3.02881 11.3535 3.02831ZM7 1.16311C7.52741 1.17457 8.03512 1.36568 8.43918 1.70483C8.84325 2.04398 9.11948 2.51087 9.2222 3.02831H4.7778C4.88052 2.51087 5.15675 2.04398 5.56082 1.70483C5.96488 1.36568 6.47259 1.17457 7 1.16311ZM12.37 12.86C12.3697 13.1296 12.2625 13.388 12.072 13.5787C11.8814 13.7694 11.623 13.8767 11.3534 13.8771H2.6465C2.37694 13.8767 2.11856 13.7693 1.92801 13.5787C1.73746 13.388 1.63029 13.1296 1.63 12.86V5.14451C1.63032 4.87499 1.73752 4.61659 1.9281 4.42601C2.11869 4.23543 2.37708 4.12822 2.6466 4.12791H11.3536C11.6231 4.12828 11.8814 4.23551 12.072 4.42608C12.2625 4.61666 12.3697 4.87502 12.37 5.14451V12.86Z" fill="black" fill-opacity="0.8"/>
</svg>
